<?xml version="1.0" standalone="no"?>
<!DOCTYPE svg PUBLIC "-//W3C//DTD SVG 20010904//EN"
 "http://www.w3.org/TR/2001/REC-SVG-20010904/DTD/svg10.dtd">
<svg version="1.0" xmlns="http://www.w3.org/2000/svg"
 width="1586.000000pt" height="565.000000pt" viewBox="0 0 1586.000000 565.000000"
 preserveAspectRatio="xMidYMid meet">

<g transform="translate(0.000000,565.000000) scale(0.100000,-0.100000)"
fill="#000000" stroke="none">
<path d="M795 5640 c-200 -22 -387 -103 -521 -227 -112 -103 -201 -258 -246
-428 l-23 -90 0 -2100 0 -2100 27 -98 c65 -237 189 -401 395 -523 37 -22 87
-48 111 -57 40 -16 524 -17 7395 -17 l7353 0 85 41 c106 51 213 132 279 212
63 77 141 234 172 347 l23 85 0 2125 0 2125 -28 89 c-15 50 -49 131 -74 180
-63 123 -208 270 -328 333 -103 54 -229 90 -357 102 -123 12 -14154 13 -14263
1z m2909 -836 c11 -28 6 -168 -8 -234 -49 -223 -208 -435 -398 -528 -99 -49
-193 -74 -256 -70 l-47 3 -3 70 c-15 335 236 652 596 755 84 23 108 24 116 4z
m9806 -674 l0 -180 48 49 c73 76 166 92 259 46 105 -53 122 -112 123 -422 l0
-193 -60 0 -60 0 0 213 c0 249 -5 267 -82 305 -83 41 -168 8 -209 -83 -16 -34
-19 -68 -19 -238 l0 -198 -56 3 -56 3 1 435 c0 239 0 436 1 438 0 1 25 2 55 2
l55 0 0 -180z m-4580 -234 c0 -222 3 -418 6 -435 l7 -31 -62 0 -61 0 0 435 0
435 55 0 55 0 0 -404z m2030 -31 l0 -435 -60 0 -60 0 0 57 0 56 -29 -40 c-39
-53 -101 -83 -174 -83 -104 0 -176 49 -222 151 -52 117 -45 275 18 380 80 133
257 159 363 54 l44 -44 0 169 0 170 60 0 60 0 0 -435z m-4775 385 c84 -34 174
-124 205 -205 27 -73 38 -234 21 -315 -26 -122 -100 -218 -205 -267 -60 -28
-64 -28 -278 -31 l-218 -3 0 426 0 427 208 -4 c190 -4 212 -6 267 -28z m6973
-117 l3 -73 54 0 55 0 0 -45 0 -44 -56 -3 -55 -3 -2 -204 c-1 -201 -1 -204 22
-222 13 -11 38 -19 57 -19 33 0 34 -1 34 -44 0 -41 -2 -44 -32 -50 -64 -13
-147 18 -178 66 -12 18 -16 71 -20 248 l-5 225 -42 3 -43 3 0 45 0 44 45 0 45
0 0 75 0 76 58 -3 57 -3 3 -72z m-6213 -90 c55 -29 109 -88 137 -148 19 -42
23 -67 23 -155 -1 -128 -23 -189 -92 -250 -62 -54 -126 -74 -223 -68 -89 5
-148 33 -199 95 -74 90 -96 248 -51 367 28 73 97 146 161 169 62 23 190 18
244 -10z m1576 15 c52 -18 96 -55 118 -102 19 -39 21 -61 21 -284 l0 -242 -57
0 -58 0 0 218 c0 189 -2 221 -18 249 -25 47 -61 67 -121 67 -66 0 -110 -26
-137 -81 -19 -39 -21 -62 -21 -248 l-1 -205 -58 0 -59 0 0 315 0 315 60 0 60
0 0 -52 0 -53 24 36 c47 68 157 98 247 67z m929 -4 c39 -12 66 -29 106 -69 64
-64 87 -130 88 -250 0 -109 -24 -176 -83 -235 -57 -57 -119 -80 -212 -80 -169
0 -289 135 -289 325 0 232 177 372 390 309z m686 -12 c22 -11 51 -33 66 -49
53 -56 58 -82 58 -333 l0 -230 -60 0 -60 0 0 45 0 45 -39 -39 c-47 -47 -102
-65 -182 -59 -108 8 -179 83 -179 188 0 122 74 174 258 185 139 9 142 10 142
46 0 85 -71 139 -164 125 -45 -7 -96 -45 -96 -72 0 -10 -16 -14 -60 -14 -35 0
-60 4 -60 10 0 21 32 85 53 108 25 27 69 52 112 63 50 14 168 3 211 -19z
m1645 -4 c97 -57 140 -135 147 -266 8 -155 -45 -269 -152 -324 -58 -30 -180
-37 -243 -13 -97 37 -163 127 -183 250 -27 167 55 327 190 370 71 23 187 15
241 -17z m694 13 c46 -21 88 -63 106 -106 9 -20 14 -109 17 -272 l4 -243 -60
0 -60 0 -4 224 c-3 208 -4 227 -24 253 -63 85 -180 80 -248 -11 -19 -25 -21
-43 -24 -247 l-3 -219 -60 0 -59 0 0 315 0 315 60 0 60 0 0 -52 0 -53 24 36
c51 74 179 102 271 60z m1939 8 c118 -33 182 -125 200 -286 l7 -63 -223 -2
-223 -3 3 -30 c5 -51 44 -116 82 -136 42 -23 129 -25 170 -4 15 8 37 26 48 40
17 21 28 25 76 25 l56 0 -11 -27 c-57 -150 -294 -203 -433 -97 -113 86 -149
301 -74 447 58 115 193 172 322 136z m-7068 -234 c32 -129 61 -235 64 -235 3
0 13 34 24 76 10 42 40 146 66 232 l47 157 51 3 50 3 21 -63 c18 -58 83 -283
112 -388 l12 -45 18 86 c10 48 37 159 60 248 l42 161 59 0 c32 0 58 -4 58 -10
0 -8 -55 -197 -156 -537 l-25 -83 -57 0 -57 0 -52 178 c-28 97 -59 204 -68
237 l-17 60 -65 -225 c-35 -124 -66 -231 -69 -238 -3 -9 -21 -12 -61 -10 l-56
3 -57 205 c-32 113 -71 250 -89 306 -17 56 -31 104 -31 108 0 3 26 6 59 6 l59
0 58 -235z m-3428 50 c101 -24 216 -73 294 -124 92 -61 228 -201 228 -235 0
-6 -34 -34 -76 -61 -154 -101 -258 -249 -311 -446 -26 -95 -23 -278 6 -389 60
-226 205 -411 398 -507 l92 -46 -20 -51 c-39 -97 -157 -331 -214 -421 -146
-232 -300 -402 -418 -460 -147 -72 -247 -69 -499 16 -249 84 -397 84 -645 0
-255 -86 -343 -90 -484 -19 -172 86 -382 345 -548 677 -277 553 -313 1120 -97
1548 162 323 468 523 800 523 114 0 210 -20 353 -74 215 -80 279 -82 473 -14
291 101 331 109 490 103 63 -3 143 -11 178 -20z m6436 -1238 c166 -62 267
-180 290 -339 l7 -48 -101 0 c-72 0 -102 4 -104 13 -2 6 -9 32 -16 57 -17 63
-91 134 -161 154 -146 44 -312 -4 -365 -105 -18 -36 -18 -132 1 -169 33 -64
79 -85 310 -146 318 -84 414 -156 445 -338 35 -198 -74 -363 -285 -429 -58
-18 -94 -22 -210 -22 -119 0 -151 3 -215 24 -100 31 -148 61 -214 131 -57 62
-88 127 -100 213 l-7 47 101 0 c72 0 102 -4 104 -12 2 -7 9 -32 15 -56 15 -53
68 -114 124 -141 150 -72 390 -34 451 72 48 84 42 158 -16 214 -45 44 -101 67
-278 113 -239 63 -316 101 -388 195 -45 60 -64 118 -64 205 0 199 128 343 347
390 22 5 90 8 150 6 88 -3 124 -8 179 -29z m-3853 -197 c42 -113 126 -338 187
-500 60 -162 137 -369 170 -460 33 -91 63 -173 67 -182 7 -17 -2 -18 -101 -18
l-109 0 -64 175 -64 175 -275 -2 -274 -3 -49 -135 c-27 -74 -54 -152 -59 -172
l-11 -38 -104 0 c-58 0 -105 4 -105 8 0 15 255 712 382 1045 l122 318 105 -3
106 -3 76 -205z m4629 -40 l0 -120 90 0 90 0 0 -80 0 -80 -91 0 -91 0 4 -314
3 -314 24 -26 c21 -23 33 -26 88 -26 l63 0 0 -79 0 -78 -46 -7 c-123 -16 -209
5 -270 69 -61 63 -64 87 -64 454 l0 321 -70 0 -70 0 0 80 0 80 65 0 65 0 0
113 c0 63 3 117 7 120 3 4 51 7 105 7 l98 0 0 -120z m-3400 -127 c85 -29 168
-101 209 -181 46 -90 65 -182 65 -307 -1 -324 -153 -516 -408 -516 -48 0 -99
6 -124 15 -59 21 -126 71 -158 117 -15 22 -31 39 -35 39 -5 0 -9 -110 -9 -245
l0 -245 -100 0 -100 0 2 663 3 662 97 3 97 3 3 -87 3 -87 40 54 c91 122 254
166 415 112z m1062 16 c213 -45 333 -230 332 -514 0 -180 -46 -308 -146 -401
-72 -67 -144 -97 -248 -102 -124 -6 -184 18 -272 109 l-68 70 0 -251 0 -250
-100 0 -100 0 0 665 0 665 100 0 100 0 0 -92 0 -92 28 45 c79 123 222 180 374
148z m3301 -28 c80 -31 174 -121 215 -203 119 -245 60 -575 -126 -708 -77 -56
-164 -81 -279 -81 -180 -1 -303 58 -385 185 -135 209 -108 547 56 712 51 50
132 96 203 114 21 5 88 8 148 6 86 -2 123 -8 168 -25z m954 16 c2 -3 1 -41 -3
-86 l-7 -81 -36 6 c-86 14 -186 -39 -229 -120 l-27 -51 1 -327 1 -328 -98 0
-99 0 0 490 0 490 95 0 95 0 0 -72 0 -73 21 35 c41 68 85 103 154 121 28 8
123 4 132 -4z m715 -16 c159 -62 267 -254 268 -473 l0 -68 -354 0 -353 0 9
-52 c13 -72 53 -152 91 -184 50 -42 95 -57 175 -57 92 1 170 36 209 94 l26 39
93 0 93 0 -14 -40 c-33 -94 -101 -164 -205 -214 -63 -30 -69 -31 -205 -31
-137 0 -142 1 -207 32 -173 82 -257 235 -258 469 0 253 114 434 315 500 64 22
246 13 317 -15z"/>
<path d="M10605 3950 c-50 -25 -81 -70 -96 -139 -22 -105 10 -223 73 -261 97
-59 211 -16 243 94 61 206 -66 383 -220 306z"/>
<path d="M5830 3856 l0 -326 103 0 c181 0 265 36 320 138 53 97 53 276 0 373
-29 54 -84 99 -143 117 -19 6 -90 14 -157 17 l-123 7 0 -326z"/>
<path d="M6745 3956 c-71 -32 -105 -101 -105 -215 0 -139 63 -221 170 -221 68
0 110 27 143 90 23 45 27 66 27 135 0 66 -5 90 -25 131 -41 82 -129 116 -210
80z"/>
<path d="M9290 3959 c-89 -37 -129 -158 -99 -299 34 -158 236 -192 305 -53 15
30 19 60 19 138 0 114 -16 160 -68 197 -34 25 -118 34 -157 17z"/>
<path d="M10015 3710 c-115 -13 -155 -39 -155 -100 0 -54 35 -83 108 -87 100
-7 156 42 169 146 l6 51 -34 -1 c-19 -1 -61 -5 -94 -9z"/>
<path d="M11565 3951 c-69 -42 -98 -104 -98 -212 -1 -131 53 -207 152 -217 62
-6 101 9 141 54 36 42 50 90 50 180 0 132 -66 214 -172 214 -24 0 -56 -8 -73
-19z"/>
<path d="M14263 3954 c-37 -18 -66 -60 -81 -116 l-10 -38 160 0 160 0 -7 38
c-20 108 -125 163 -222 116z"/>
<path d="M6300 2393 c-16 -49 -186 -542 -195 -565 -7 -17 7 -18 210 -18 199 0
217 1 211 17 -4 9 -52 147 -107 307 -55 160 -102 292 -104 294 -2 2 -9 -14
-15 -35z"/>
<path d="M7479 2123 c-53 -8 -131 -65 -160 -118 -35 -62 -53 -174 -46 -273 15
-193 113 -299 274 -296 155 4 241 109 251 305 13 262 -114 414 -319 382z"/>
<path d="M8595 2121 c-83 -22 -152 -87 -181 -172 -28 -81 -26 -273 4 -350 25
-62 68 -111 124 -140 43 -22 145 -26 199 -8 120 41 190 185 176 368 -11 147
-58 236 -150 283 -44 22 -126 31 -172 19z"/>
<path d="M11792 2104 c-85 -42 -133 -123 -153 -256 -19 -132 12 -263 82 -343
46 -52 99 -75 179 -75 143 0 232 91 260 265 19 121 -13 278 -71 349 -70 84
-197 110 -297 60z"/>
<path d="M13472 2109 c-71 -35 -111 -98 -136 -211 l-6 -28 250 0 251 0 -7 38
c-16 94 -68 170 -139 203 -57 26 -157 25 -213 -2z"/>
</g>
</svg>
