<?xml version="1.0" standalone="no"?>
<!DOCTYPE svg PUBLIC "-//W3C//DTD SVG 20010904//EN"
 "http://www.w3.org/TR/2001/REC-SVG-20010904/DTD/svg10.dtd">
<svg version="1.0" xmlns="http://www.w3.org/2000/svg"
 width="1997.000000pt" height="703.000000pt" viewBox="0 0 1997.000000 703.000000"
 preserveAspectRatio="xMidYMid meet">

<g transform="translate(0.000000,703.000000) scale(0.100000,-0.100000)"
fill="#000000" stroke="none">
<path d="M1030 6992 c-493 -246 -821 -665 -946 -1212 l-24 -105 0 -2084 0
-2084 26 -116 c79 -355 206 -599 437 -840 276 -287 592 -459 984 -534 86 -16
16887 -23 16998 -7 93 14 276 59 290 71 5 5 17 9 26 9 44 0 390 175 441 222 7
7 40 33 72 57 63 47 216 195 279 271 56 67 159 225 206 313 23 43 65 145 94
225 l52 147 3 2230 c3 2492 10 2258 -71 2475 -118 318 -355 627 -619 809 -29
20 -55 39 -58 42 -11 12 -178 106 -227 127 l-52 22 -8918 0 -8918 -1 -75 -37z
m1263 -1228 c28 -15 117 -65 197 -112 80 -47 210 -123 290 -170 188 -110 300
-176 605 -359 138 -82 326 -194 419 -249 154 -90 549 -327 1071 -641 110 -66
306 -183 434 -259 142 -84 252 -156 278 -182 79 -80 94 -208 36 -315 -50 -91
-52 -92 -774 -521 -109 -64 -200 -116 -205 -116 -4 0 -41 37 -83 82 -71 77
-389 413 -559 591 -73 76 -75 77 -95 60 -11 -10 -142 -151 -291 -313 -149
-162 -358 -389 -465 -505 -107 -115 -240 -259 -296 -320 -56 -60 -194 -209
-306 -330 -334 -361 -541 -595 -575 -651 -11 -18 -15 -16 -53 21 -54 52 -88
113 -99 178 -5 29 -6 916 -3 1987 6 1911 6 1935 26 1970 33 58 76 109 96 115
10 4 19 13 19 21 0 8 17 22 38 31 88 37 206 32 295 -13z m5647 -204 c84 -13
213 -76 265 -130 l39 -40 -51 -52 -51 -51 -44 35 c-66 53 -93 67 -155 83 -73
19 -143 19 -218 -1 -212 -55 -354 -279 -317 -500 56 -339 458 -485 710 -259
47 42 100 137 116 208 l6 27 -210 0 -210 0 0 70 0 70 285 0 285 0 0 -91 c0
-160 -42 -271 -142 -375 -105 -110 -227 -157 -408 -158 -263 -1 -473 145 -562
390 -27 73 -36 241 -18 323 18 83 75 192 135 259 139 153 340 224 545 192z
m2461 -59 c89 -89 -33 -227 -129 -146 -36 30 -47 66 -32 111 23 70 108 88 161
35z m-802 -223 l1 -78 95 0 95 0 0 -70 0 -70 -95 0 -95 0 0 -229 c0 -229 0
-230 24 -258 22 -26 30 -28 91 -27 l66 1 -3 -71 -3 -71 -74 -3 c-117 -5 -189
28 -232 108 -11 19 -15 91 -19 285 l-5 260 -77 3 -78 3 0 69 0 70 80 0 80 0 0
120 0 119 68 3 67 3 7 -45 c3 -25 7 -80 7 -122z m1221 47 l0 -125 95 0 95 0 0
-70 0 -70 -88 0 -89 0 -7 -200 c-9 -298 -3 -316 109 -314 l62 1 2 -68 2 -67
-55 -7 c-120 -15 -204 19 -245 100 -26 49 -26 54 -29 302 l-4 252 -76 3 -77 3
-3 68 -3 67 81 0 80 0 0 120 0 119 68 4 c37 2 70 4 75 5 4 1 7 -54 7 -123z
m-1796 -138 c71 -33 141 -103 173 -175 27 -58 53 -215 39 -229 -4 -4 -140 -10
-302 -12 l-294 -3 0 -22 c0 -13 14 -51 31 -85 49 -99 139 -144 253 -127 51 8
123 53 150 94 l19 29 61 -35 c34 -20 63 -37 65 -39 2 -1 -15 -27 -37 -57 -98
-130 -321 -171 -488 -90 -146 70 -235 263 -206 443 16 94 43 152 99 212 88 94
179 131 305 125 54 -3 93 -11 132 -29z m2918 22 c122 -26 235 -115 284 -222
33 -74 45 -207 24 -285 -56 -210 -244 -333 -462 -302 -211 30 -351 214 -335
441 17 249 244 420 489 368z m990 -21 c56 -24 111 -81 142 -147 20 -43 21 -65
24 -333 l4 -288 -76 0 -76 0 0 233 c-1 127 -5 252 -9 276 -10 51 -35 87 -81
119 -39 26 -130 30 -183 8 -43 -17 -93 -76 -106 -123 -6 -22 -11 -141 -11
-275 l0 -238 -75 0 -75 0 0 385 0 385 59 0 c33 0 66 3 75 6 13 5 16 -2 16 -42
l0 -48 38 36 c20 20 48 41 61 48 63 33 193 31 273 -2z m-2528 4 c3 -5 2 -180
-1 -390 l-6 -382 -74 0 -74 0 1 384 c1 212 4 387 8 390 8 9 140 7 146 -2z
m-2057 -1411 c126 -36 224 -89 328 -176 l30 -25 -80 -74 c-44 -41 -83 -75 -86
-76 -3 0 -24 14 -45 31 -134 106 -320 150 -494 115 -248 -50 -436 -232 -501
-484 -77 -303 110 -636 413 -737 365 -120 701 26 783 341 8 32 15 69 15 81 l0
23 -295 0 -296 0 3 108 3 107 400 -4 c220 -2 402 -6 405 -8 2 -2 4 -68 3 -146
0 -109 -5 -159 -21 -218 -73 -273 -268 -464 -537 -525 -107 -25 -320 -26 -427
-2 -190 42 -325 115 -459 248 -86 85 -102 107 -148 200 -76 155 -86 204 -86
400 1 160 2 168 33 259 105 303 338 507 662 576 93 21 303 13 397 -14z m4733
-831 l0 -820 -115 0 -115 0 0 815 0 814 78 4 c42 1 94 4 115 5 l37 2 0 -820z
m3238 -2 l2 -818 -115 0 -115 0 0 820 0 821 113 -3 112 -3 3 -817z m-704 784
c252 -94 378 -334 321 -607 -45 -214 -205 -367 -429 -410 -53 -10 -142 -15
-277 -15 l-199 0 0 -287 0 -288 -112 2 -113 2 -3 816 -2 816 377 -3 c361 -4
381 -5 437 -26z m-5771 -530 c137 -53 240 -151 301 -284 41 -89 56 -156 56
-251 -1 -262 -163 -478 -415 -553 -41 -12 -92 -18 -160 -18 -176 1 -301 50
-418 165 -77 77 -128 172 -152 284 -18 87 -18 128 0 230 39 218 205 397 420
452 32 8 94 11 170 9 105 -3 129 -7 198 -34z m1196 23 c201 -48 372 -225 416
-432 51 -242 -55 -496 -256 -616 -274 -162 -632 -84 -799 175 -57 87 -81 166
-87 283 -9 167 40 304 150 422 89 94 184 149 302 173 67 13 206 11 274 -5z
m1235 -11 c26 -11 75 -40 107 -66 l59 -48 0 50 0 50 110 0 111 0 -3 -587 c-3
-580 -4 -589 -26 -655 -33 -97 -110 -208 -176 -252 -113 -75 -245 -104 -387
-86 -201 25 -331 108 -411 264 -11 21 -16 42 -11 45 4 4 48 25 97 47 58 25 91
35 93 27 2 -6 22 -36 44 -67 31 -43 53 -62 106 -88 57 -28 77 -33 142 -33 102
0 158 22 215 86 25 28 52 71 61 99 13 39 33 178 35 244 0 5 -21 -10 -46 -34
-68 -63 -142 -93 -243 -98 -253 -14 -465 135 -552 388 -29 85 -31 237 -5 325
60 202 209 353 392 400 77 19 222 14 288 -11z m1619 11 c152 -39 265 -147 341
-324 15 -35 23 -67 19 -71 -8 -7 -150 -71 -508 -228 -88 -39 -179 -78 -202
-87 -24 -10 -43 -22 -43 -29 0 -17 64 -93 106 -127 111 -88 303 -70 412 39
l40 40 41 -27 c23 -16 64 -38 91 -51 28 -13 50 -29 50 -35 0 -21 -116 -131
-172 -164 -120 -68 -288 -88 -432 -51 -106 27 -169 63 -246 140 -305 304 -177
867 221 974 71 19 210 20 282 1z m3212 0 c159 -42 253 -127 300 -275 15 -44
19 -103 23 -305 2 -137 1 -309 -3 -380 l-7 -130 -100 0 -100 0 4 42 c2 24 2
43 0 43 -2 0 -21 -14 -42 -30 -127 -101 -348 -127 -503 -61 -221 95 -269 398
-92 573 144 143 416 182 588 85 26 -14 49 -22 51 -18 3 4 -1 34 -7 67 -18 85
-58 148 -115 181 -42 25 -57 28 -137 28 -78 0 -97 -4 -147 -28 -52 -26 -110
-77 -120 -108 -3 -9 -30 0 -93 33 -49 25 -91 50 -92 55 -6 17 105 140 156 172
80 52 150 70 271 70 65 1 129 -5 165 -14z m660 -87 c71 -154 205 -459 256
-585 30 -73 57 -133 60 -133 4 0 10 11 13 25 3 13 58 149 122 302 64 153 133
319 154 368 l37 90 117 3 c79 2 116 -1 116 -8 0 -16 -64 -170 -275 -666 -157
-368 -214 -508 -336 -824 l-17 -45 -113 -7 c-62 -4 -114 -6 -116 -5 -1 2 18
57 43 123 25 65 66 173 90 239 l43 120 -99 230 c-54 126 -159 364 -234 528
-75 165 -136 303 -136 308 0 5 54 9 120 9 l121 0 34 -72z"/>
<path d="M8762 5059 c-47 -23 -83 -64 -107 -122 l-15 -37 225 0 c124 0 225 2
225 5 0 12 -33 71 -58 104 -52 69 -182 93 -270 50z"/>
<path d="M11742 5044 c-92 -46 -136 -123 -136 -239 0 -84 10 -115 61 -182 66
-89 198 -115 301 -58 149 81 188 293 77 422 -73 86 -198 109 -303 57z"/>
<path d="M15034 3541 c-2 -2 -4 -143 -4 -313 l0 -308 173 0 c263 0 337 19 428
110 63 63 83 124 77 239 -7 131 -48 195 -158 245 -53 24 -64 25 -283 28 -126
2 -231 1 -233 -1z"/>
<path d="M9522 3016 c-150 -49 -241 -200 -229 -380 9 -144 76 -249 196 -304
82 -38 193 -38 272 1 74 36 140 107 169 183 19 46 24 79 24 154 1 87 -2 101
-31 162 -37 78 -97 142 -162 171 -58 26 -179 32 -239 13z"/>
<path d="M10815 3021 c-96 -25 -174 -91 -221 -187 -27 -54 -29 -68 -29 -169 0
-104 2 -114 33 -176 58 -121 160 -183 297 -184 68 0 89 4 137 28 148 73 227
257 184 427 -28 110 -101 201 -193 242 -48 21 -161 32 -208 19z"/>
<path d="M12039 3014 c-82 -29 -139 -81 -184 -168 -38 -74 -40 -82 -39 -169 0
-78 4 -101 26 -149 56 -121 159 -197 278 -206 81 -5 137 9 192 51 89 67 140
179 139 305 0 131 -77 269 -176 318 -70 34 -169 41 -236 18z"/>
<path d="M13690 3031 c-128 -42 -220 -154 -238 -290 -5 -34 -7 -63 -5 -65 3
-2 86 32 186 76 100 44 217 94 261 111 43 17 81 37 83 45 7 18 -52 79 -102
104 -43 22 -144 33 -185 19z"/>
<path d="M16891 2650 c-195 -41 -261 -261 -104 -348 161 -89 411 28 431 203 4
40 1 50 -23 75 -57 59 -198 92 -304 70z"/>
</g>
</svg>
