<?xml version="1.0" encoding="UTF-8"?>
<svg width="100" height="100" viewBox="0 0 100 100" fill="none" xmlns="http://www.w3.org/2000/svg">
  <g fill="#004D99">
    <path d="M50 10C22.3858 10 10 22.3858 10 40v20c0 17.6142 12.3858 30 30 30 17.6142 0 30-12.3858 30-30V40c0-17.6142-12.3858-30-30-30z"/>
    <path d="M50 30c-8.2843 0-15 6.7157-15 15 0 8.2843 6.7157 15 15 15 8.2843 0 15-6.7157 15-15C65 36.7157 58.2843 30 50 30z"/>
    <path d="M50 60c-8.2843 0-15 6.7157-15 15 0 8.2843 6.7157 15 15 15 8.2843 0 15-6.7157 15-15C65 66.7157 58.2843 60 50 60z"/>
  </g>
</svg>
